<?xml version="1.0" encoding="UTF-8" standalone="no"?>
<!DOCTYPE svg PUBLIC "-//W3C//DTD SVG 1.1//EN" "http://www.w3.org/Graphics/SVG/1.1/DTD/svg11.dtd">
<!-- Created with Vectornator (http://vectornator.io/) -->
<svg height="100%" stroke-miterlimit="10" style="fill-rule:nonzero;clip-rule:evenodd;stroke-linecap:round;stroke-linejoin:round;" version="1.1" viewBox="0 0 410 420" width="100%" xml:space="preserve" xmlns="http://www.w3.org/2000/svg" xmlns:xlink="http://www.w3.org/1999/xlink">
<defs/>
<g id="Layer-2">
<path d="M127.942 357.81C127.942 357.81 90.6376 282.159 107.333 208.855C120.847 149.518 169.68 112.856 175.419 115.986C180.642 118.835 133.42 173.899 130.029 244.072C128.987 265.634 159.833 208.203 181.941 189.029C204.05 169.855 213.817 163.661 218.463 167.377C220.396 168.924 185.028 213.992 157.68 259.985C140.463 288.941 127.942 357.81 127.942 357.81Z" fill="#ffffff" fill-rule="nonzero" opacity="1" stroke="none"/>
</g>
<g id="Layer-3">
<path d="M395.75 11.2812C386.335 11.1768 375.638 18.5516 308.312 42.9688C255.92 49.0002 229.491 36.3692 188.938 50.4062C143.747 66.0481 152.589 63.8272 138.719 69.5312C50.1749 105.945 8.53125 104.219 8.53125 104.219C8.53125 104.219 33.5389 131.697 65.1875 151.562C25.168 240.634 59.5625 267.438 59.5625 267.438C59.5625 267.437 61.0637 225.011 78.3125 192.688C95.5613 160.364 127.344 134.781 127.344 134.781C127.344 134.781 91.9173 131.872 79.125 130.094C66.3327 128.316 48.5312 115.969 48.5312 115.969C48.5313 115.969 85.5348 124.495 137.562 111.719C180.409 101.197 154.942 83.0913 178.406 79.5938C201.871 76.0962 217.05 105.427 235.188 99.125C251.254 93.5427 254.136 90.23 254.531 90C310.049 57.723 335.858 63.382 337.156 64.25C341.984 67.4776 316.873 105.643 315.656 117.906C314.741 127.136 325.605 136.548 326.594 149.188C251.096 241.686 229.733 306.182 223.625 305.156C216.789 304.008 218.899 274.79 221.281 255.125C225.632 219.205 244.05 184.493 233.031 179.344C225.291 175.727 189.463 244.211 194.188 291.219C197.176 320.95 242.969 406.719 242.969 406.719C242.969 406.719 242.966 329.118 266.5 273.938C294.819 207.538 392.407 124.921 385.594 119.656C379.255 114.758 328.16 136.565 326.125 130.031C324.919 126.16 391.125 40.25 391.125 40.25C391.125 40.25 400.535 11.3343 395.75 11.2812ZM243.75 57.7812C250.646 57.3913 257.076 59.5896 258.281 62.2812C259.888 65.8701 250.353 71.7215 241.438 74.8438C232.522 77.966 221.137 76.1754 222.406 72.4062C224.372 66.5716 227.96 62.2472 236.875 59.125C239.104 58.3444 241.451 57.9112 243.75 57.7812Z" fill="#ffffff" fill-rule="nonzero" opacity="1" stroke="none"/>
</g>
</svg>
